<svg width="224" height="225" viewBox="0 0 224 225" fill="none" xmlns="http://www.w3.org/2000/svg">
<path d="M74.7323 10.0176H9.51562V75.2343H74.7323V10.0176ZM65.4156 65.9176H18.8323V19.3342H65.4156V65.9176Z" fill="#F7FBFA"/>
<path d="M144.608 196.352H135.291V214.985H214.483V205.668H144.608V196.352Z" fill="#F7FBFA"/>
<path d="M56.0984 28.6514H28.1484V56.6014H56.0984V28.6514Z" fill="#F7FBFA"/>
<path d="M9.51562 214.984H74.7323V149.768H9.51562V214.984ZM18.8323 159.084H65.4156V205.668H18.8323V159.084Z" fill="#F7FBFA"/>
<path d="M56.0984 168.401H28.1484V196.351H56.0984V168.401Z" fill="#F7FBFA"/>
<path d="M149.266 10.0176V75.2343H214.482V10.0176H149.266ZM205.166 65.9176H158.582V19.3342H205.166V65.9176Z" fill="#F7FBFA"/>
<path d="M195.848 28.6514H167.898V56.6014H195.848V28.6514Z" fill="#F7FBFA"/>
<path d="M214.483 84.5518H195.85V103.185H214.483V84.5518Z" fill="#F7FBFA"/>
<path d="M28.149 121.817H9.51562V140.451H28.149V121.817Z" fill="#F7FBFA"/>
<path d="M107.341 84.5509H70.0742V93.8676H116.658V75.2342V65.9176H125.974V47.2842H116.658H107.341H98.0242V28.6509H107.341V37.9676H139.949V10.0176H130.633V28.6509H116.658V10.0176H111.999H93.3659H88.7076V56.6009H107.341V65.9176H88.7076V75.2342H107.341V84.5509Z" fill="#F7FBFA"/>
<path d="M23.4906 112.502H42.124H51.4406H56.099V121.818H37.4656V131.135H56.099V140.452H93.3656V131.135H65.4156V121.818V103.185H51.4406V89.2101H42.124V103.185H32.8073V84.5518H9.51562V93.8684H23.4906V112.502Z" fill="#F7FBFA"/>
<path d="M111.999 196.352V173.06H93.3655V154.427H84.0488V182.377H102.682V196.352H84.0488V205.668H102.682V214.985H125.974V205.668H111.999V196.352Z" fill="#F7FBFA"/>
<path d="M158.583 103.184H139.949V79.8926H130.633V112.501H177.216V103.184H167.899V93.8676H181.874V84.5509H167.899H158.583H149.266V93.8676H158.583V103.184Z" fill="#F7FBFA"/>
<path d="M149.266 187.034H163.241V196.35H181.874V187.034V177.717V163.742H163.241V177.717H149.266V163.742H139.949V177.717H130.632V140.45H121.316V131.134H111.999V103.184H79.3906V121.817H88.7073V112.5H102.682V131.134V149.767H121.316V177.717V187.034H130.632H139.949H149.266Z" fill="#F7FBFA"/>
<path d="M205.166 126.477H191.191H181.874H158.583V145.11H149.266V126.477H139.949V154.427H167.899V135.794H181.874V149.769H191.191V135.794H205.166V163.744H191.191V191.694H214.483V182.377H200.508V173.06H214.483V135.794V126.477V112.502H205.166V126.477Z" fill="#F7FBFA"/>
</svg>
