<svg width="24" height="24" viewBox="0 0 24 24" fill="none" xmlns="http://www.w3.org/2000/svg">
<path d="M12 3C7.02939 3 2.99995 7.02944 2.99996 12C2.99996 16.9706 7.02939 21 12 21C16.9705 21 21 16.9706 21 12C21 7.02944 16.9705 3 12 3Z" stroke="#686A6C" stroke-width="1.5" stroke-linecap="round" stroke-linejoin="round"/>
<path d="M8.47053 11.6045V15.5M11.4823 10.0462V15.5M15.9999 15.5C15.9999 15.5 15.9999 13.0069 15.9999 11.6045C15.9999 9.26713 12.8376 9.50087 11.4823 11.2928" stroke="#686A6C" stroke-width="1.5" stroke-miterlimit="10" stroke-linecap="round" stroke-linejoin="round"/>
<path d="M8.49995 9.5C8.7761 9.5 8.99995 9.27614 8.99995 9C8.99995 8.72386 8.7761 8.5 8.49995 8.5C8.22381 8.5 7.99995 8.72386 7.99995 9C7.99995 9.27614 8.22381 9.5 8.49995 9.5Z" fill="#686A6C" stroke="#686A6C" stroke-width="1.5" stroke-linecap="round" stroke-linejoin="round"/>
</svg>
