<svg width="24" height="24" viewBox="0 0 24 24" fill="none" xmlns="http://www.w3.org/2000/svg">
<path fill-rule="evenodd" clip-rule="evenodd" d="M12 16C14.2091 16 16 14.2091 16 12C16 9.79086 14.2091 8 12 8C9.79086 8 8 9.79086 8 12C8 14.2091 9.79086 16 12 16ZM18 12C18 15.3137 15.3137 18 12 18C8.68629 18 6 15.3137 6 12C6 8.68629 8.68629 6 12 6C15.3137 6 18 8.68629 18 12Z" fill="#686A6C"/>
<path fill-rule="evenodd" clip-rule="evenodd" d="M11.9961 2C12.5484 2 12.9961 2.44772 12.9961 3V4C12.9961 4.55228 12.5484 5 11.9961 5C11.4438 5 10.9961 4.55228 10.9961 4V3C10.9961 2.44772 11.4438 2 11.9961 2Z" fill="#686A6C"/>
<path fill-rule="evenodd" clip-rule="evenodd" d="M11.9961 19C12.5484 19 12.9961 19.4477 12.9961 20V20.9968C12.9961 21.5491 12.5484 21.9968 11.9961 21.9968C11.4438 21.9968 10.9961 21.5491 10.9961 20.9968V20C10.9961 19.4477 11.4438 19 11.9961 19Z" fill="#686A6C"/>
<path fill-rule="evenodd" clip-rule="evenodd" d="M4.92571 4.92863C5.31623 4.53811 5.9494 4.53811 6.33992 4.92863L7.20439 5.7931C7.59492 6.18363 7.59492 6.81679 7.20439 7.20732C6.81387 7.59784 6.1807 7.59784 5.79018 7.20732L4.92571 6.34285C4.53518 5.95232 4.53518 5.31916 4.92571 4.92863Z" fill="#686A6C"/>
<path fill-rule="evenodd" clip-rule="evenodd" d="M16.793 16.7958C17.1835 16.4053 17.8166 16.4053 18.2072 16.7958L19.065 17.6536C19.4555 18.0442 19.4555 18.6773 19.0649 19.0679C18.6744 19.4584 18.0413 19.4584 17.6507 19.0678L16.7929 18.21C16.4024 17.8195 16.4024 17.1863 16.793 16.7958Z" fill="#686A6C"/>
<path fill-rule="evenodd" clip-rule="evenodd" d="M1.99609 11.998C1.99609 11.4457 2.4438 10.998 2.99609 10.998H3.99609C4.54837 10.998 4.99609 11.4457 4.99609 11.998C4.99609 12.5503 4.54837 12.998 3.99609 12.998H2.99609C2.4438 12.998 1.99609 12.5503 1.99609 11.998Z" fill="#686A6C"/>
<path fill-rule="evenodd" clip-rule="evenodd" d="M18.9961 11.998C18.9961 11.4457 19.4438 10.998 19.9961 10.998H20.9929C21.5451 10.998 21.9929 11.4457 21.9929 11.998C21.9929 12.5503 21.5451 12.998 20.9929 12.998H19.9961C19.4438 12.998 18.9961 12.5503 18.9961 11.998Z" fill="#686A6C"/>
<path fill-rule="evenodd" clip-rule="evenodd" d="M4.9257 19.068C4.53518 18.6775 4.53518 18.0444 4.9257 17.6538L5.78663 16.7929C6.17716 16.4024 6.81032 16.4024 7.20084 16.7929C7.59137 17.1834 7.59137 17.8166 7.20084 18.2071L6.33991 19.068C5.94939 19.4586 5.31622 19.4586 4.9257 19.068Z" fill="#686A6C"/>
<path fill-rule="evenodd" clip-rule="evenodd" d="M16.787 7.20733C16.3965 6.8168 16.3965 6.18363 16.787 5.79312L17.6516 4.92862C18.0421 4.53811 18.6753 4.53812 19.0658 4.92865C19.4563 5.31918 19.4563 5.95234 19.0658 6.34286L18.2012 7.20736C17.8107 7.59787 17.1775 7.59786 16.787 7.20733Z" fill="#686A6C"/>
</svg>
